<svg width="180" height="180" viewBox="0 0 180 180" fill="none" xmlns="http://www.w3.org/2000/svg">
  <rect width="180" height="180" rx="37" fill="#F97316"/>
  <!-- Livro aberto (cardápio) -->
  <path d="M90 45 C90 45 55 48 40 55 L40 125 C55 118 90 115 90 115 C90 115 125 118 140 125 L140 55 C125 48 90 45 90 45Z" fill="white" opacity="0.95"/>
  <line x1="90" y1="50" x2="90" y2="115" stroke="#F97316" stroke-width="2"/>
  <!-- Linhas de texto no cardápio esquerdo -->
  <line x1="52" y1="70" x2="80" y2="70" stroke="#F97316" stroke-width="2.5" stroke-linecap="round" opacity="0.5"/>
  <line x1="52" y1="80" x2="75" y2="80" stroke="#F97316" stroke-width="2.5" stroke-linecap="round" opacity="0.5"/>
  <line x1="52" y1="90" x2="78" y2="90" stroke="#F97316" stroke-width="2.5" stroke-linecap="round" opacity="0.5"/>
  <line x1="52" y1="100" x2="72" y2="100" stroke="#F97316" stroke-width="2.5" stroke-linecap="round" opacity="0.5"/>
  <!-- Linhas de texto no cardápio direito -->
  <line x1="100" y1="70" x2="128" y2="70" stroke="#F97316" stroke-width="2.5" stroke-linecap="round" opacity="0.5"/>
  <line x1="100" y1="80" x2="123" y2="80" stroke="#F97316" stroke-width="2.5" stroke-linecap="round" opacity="0.5"/>
  <line x1="100" y1="90" x2="126" y2="90" stroke="#F97316" stroke-width="2.5" stroke-linecap="round" opacity="0.5"/>
  <line x1="100" y1="100" x2="120" y2="100" stroke="#F97316" stroke-width="2.5" stroke-linecap="round" opacity="0.5"/>
  <!-- Garfo -->
  <g transform="translate(62, 120)">
    <line x1="0" y1="0" x2="0" y2="28" stroke="white" stroke-width="3" stroke-linecap="round"/>
    <line x1="-5" y1="0" x2="-5" y2="10" stroke="white" stroke-width="2" stroke-linecap="round"/>
    <line x1="0" y1="0" x2="0" y2="10" stroke="white" stroke-width="2" stroke-linecap="round"/>
    <line x1="5" y1="0" x2="5" y2="10" stroke="white" stroke-width="2" stroke-linecap="round"/>
  </g>
  <!-- Faca -->
  <g transform="translate(118, 120)">
    <path d="M0 0 C6 2 6 12 0 14 L0 28" stroke="white" stroke-width="3" fill="none" stroke-linecap="round"/>
  </g>
  <defs>
    <clipPath id="clip0_7960_43945">
      <rect width="180" height="180" fill="white" />
    </clipPath>
  </defs>
</svg>